<mxfile host="app.diagrams.net" modified="2022-03-24T07:24:59.980Z" agent="5.0 (Windows NT 10.0; Win64; x64) AppleWebKit/537.36 (KHTML, like Gecko) Chrome/99.0.4844.83 Safari/537.36" etag="uAVA-kCSJzwINVW0_R11" version="17.2.1" type="github">
  <diagram id="9IIWtFAtbRXTGUE0Piq1" name="Page-1">
    <mxGraphModel dx="1028" dy="2743" grid="1" gridSize="10" guides="1" tooltips="1" connect="1" arrows="1" fold="1" page="1" pageScale="1" pageWidth="850" pageHeight="1100" math="0" shadow="0">
      <root>
        <mxCell id="0" />
        <mxCell id="1" parent="0" />
        <mxCell id="lS8v6T5pcr990PlDDqWm-2" value="Online Banking System" style="shape=umlFrame;whiteSpace=wrap;html=1;width=140;height=20;" vertex="1" parent="1">
          <mxGeometry x="120" y="-2160" width="600" height="2240" as="geometry" />
        </mxCell>
      </root>
    </mxGraphModel>
  </diagram>
</mxfile>
